<svg width="60" height="35" viewBox="0 0 60 35" fill="none" xmlns="http://www.w3.org/2000/svg">
<path d="M56.779 18.0612C58.4358 18.0612 59.8062 16.7072 59.5223 15.0748C58.1043 6.92207 50.9818 0.720337 42.4046 0.708008H42.3534C40.8704 0.710139 39.4309 0.8973 38.0568 1.24758C38.0383 1.2523 38.0209 1.25661 38.0024 1.26117C37.7874 1.3142 36.3107 1.6925 34.8076 2.43262C33.1814 3.23334 31.5039 4.51415 31.5039 4.51415V31.6083L38.0289 34.8677L38.0291 19.3062C38.0291 18.5092 38.3463 17.7449 38.9106 17.1821L40.2606 15.8357C41.4315 14.6679 43.3266 14.6679 44.4976 15.8357L46.729 18.0611C46.729 18.0612 46.729 18.0612 46.729 18.0612C46.729 18.0612 46.729 18.0612 46.7291 18.0612L56.779 18.0612Z" fill="#214567"/>
<path d="M3.00033 17.5145C1.34348 17.5145 -0.0268745 18.8686 0.257027 20.5009C1.67496 28.6537 8.79745 34.8554 17.3747 34.8677H17.4259C18.9089 34.8656 20.3484 34.6784 21.7225 34.3282C21.741 34.3234 21.7584 34.3191 21.7769 34.3146C21.9919 34.2615 23.4686 33.8832 24.9717 33.1431C26.5979 32.3424 28.2754 31.0616 28.2754 31.0616L28.2754 3.96745L21.7504 0.708019L21.7502 16.2695C21.7502 17.0665 21.433 17.8308 20.8687 18.3936L19.5187 19.74C18.3478 20.9078 16.4527 20.9078 15.2817 19.74L13.0503 17.5146C13.0503 17.5146 13.0503 17.5146 13.0503 17.5146C13.0503 17.5145 13.0503 17.5145 13.0502 17.5145L3.00033 17.5145Z" fill="#214567"/>
</svg>
